<svg xmlns="http://www.w3.org/2000/svg" viewBox="0 0 868 868"><defs><style>.cls-1{fill:#010101;}.cls-2{fill:#fefe01;}.cls-3{fill:#999;}.cls-4{font-size:152.32px;}.cls-4,.cls-6{fill:#fff;font-family:ArchivoBlack-Regular, Archivo Black;}.cls-5{letter-spacing:0.01em;}.cls-6{font-size:151.42px;}</style></defs><title>logofletesbenja</title><g id="Capa_2" data-name="Capa 2"><g id="fondo_negro" data-name="fondo negro"><circle cx="434" cy="434" r="421"/></g><g id="linea"><path class="cls-1" d="M103.53,710.28c1.75,1.59,3.52,3.16,5.28,4.74L144,679.85a4.64,4.64,0,0,0,1-1.39c0-3.3,0-6.6,0-9.9,0-.46-.1-.56-.56-.56-3.3,0-6.6,0-9.9,0a4.64,4.64,0,0,0-1.39,1L97.67,704.5C99.52,706.48,101.47,708.4,103.53,710.28Z"/><path class="cls-1" d="M90.77,696.39l26.85-26.85a9.49,9.49,0,0,0,.7-.72c.19-.23.44-.45.27-.81H97.88a4.64,4.64,0,0,0-1.39,1L82.11,683.41A119.56,119.56,0,0,0,90.77,696.39Z"/><path class="cls-1" d="M127,733.51l17-17a4.64,4.64,0,0,0,1-1.39V694.41c-.8-.13-1.1.56-1.52,1l-26.84,26.83A104.22,104.22,0,0,1,127,733.51Z"/><path class="cls-2" d="M97.89,704.73l28-28c2.89-2.89,5.76-5.8,8.64-8.71H118.59c-.15.19-.28.39-.44.56l-8.81,8.81L90.58,696.14A105.1,105.1,0,0,0,97.89,704.73Z"/><path class="cls-2" d="M116.86,722.43l22.26-22.26c1.94-1.94,3.81-3.95,5.87-5.76V678.46c-1.29,1.26-2.58,2.51-3.85,3.78l-32.57,32.57C111.37,717.32,114.16,719.84,116.86,722.43Z"/><path class="cls-2" d="M81.85,683l.42.72,6.39-6.39c3.09-3.08,6.15-6.19,9.22-9.29H81.94a4.81,4.81,0,0,0-1.4,1L78,671.56A71.5,71.5,0,0,1,81.85,683Z"/><path class="cls-2" d="M133.25,743.18,144,732.46a4.81,4.81,0,0,0,1-1.4V715.12c-.25.22-.51.44-.74.67l-17.47,17.46A64.65,64.65,0,0,1,133.25,743.18Z"/><path class="cls-1" d="M76.21,668.14a36.5,36.5,0,0,1,2,3.77c1.29-1.27,2.6-2.51,3.77-3.9H76.12Z"/><path class="cls-1" d="M134.28,746.73c1.17.78,2.33,1.58,3.49,2.38a6.4,6.4,0,0,1,4.32,1.28l2.55,2a4.36,4.36,0,0,0,.35-.59V731.06c-.26.06-.39.29-.56.45l-11.35,11.35.61,1.13A5.39,5.39,0,0,1,134.28,746.73Z"/><path class="cls-1" d="M254.44,668c-3.3,0-6.6,0-9.9,0a4.64,4.64,0,0,0-1.39,1l-90.41,90.41c4.22,3.11,8.15,6.29,12.44,9.22l88.8-88.8a4.64,4.64,0,0,0,1-1.39c0-3.3,0-6.6,0-9.9C255,668.1,254.9,668,254.44,668Z"/><path class="cls-1" d="M207.88,668h20.71c.17.36-.08.58-.27.81a9.49,9.49,0,0,1-.7.72q-40.55,40.55-81.09,81.07c-.42.42-.72,1.11-1.52,1V730.88a4.64,4.64,0,0,1,1-1.39L206.49,669A4.64,4.64,0,0,1,207.88,668Z"/><path class="cls-1" d="M253.47,695.39q-40,39.93-79.89,79.87l2.83,2.73h15.71a4.64,4.64,0,0,0,1.39-1L254,716.51a4.64,4.64,0,0,0,1-1.39V694.41C254.19,694.28,253.89,695,253.47,695.39Z"/><path class="cls-2" d="M228.59,668c-.15.19-.28.39-.44.56l-8.81,8.81L150.81,745.9c-1.91,1.91-3.76,3.9-5.8,5.69v1.32a4.67,4.67,0,0,1,1.86,1.9c.67,1.2,1.4,2.36,2.17,3.47a4,4,0,0,1,3.15.74l.81.6,82.9-82.9c2.89-2.89,5.76-5.8,8.64-8.71Z"/><path class="cls-2" d="M251.14,682.24,166,767.34l-1.12,1.13c.76.53,1.54,1,2.33,1.56a43,43,0,0,1,6.56,5.45l75.31-75.31c1.94-1.94,3.81-3.95,5.87-5.76V678.46C253.7,679.72,252.41,681,251.14,682.24Z"/><path class="cls-2" d="M207.88,668c-3.07,3.1-6.13,6.21-9.22,9.29q-26.47,26.49-53,53c-.22.22-.45.41-.68.61V714.94a4.81,4.81,0,0,1,1-1.4Q168.3,691.3,190.54,669a4.81,4.81,0,0,1,1.4-1Z"/><path class="cls-2" d="M192.12,778c3.07-3.1,6.13-6.21,9.22-9.29q26.44-26.46,52.91-52.91c.23-.23.49-.45.74-.67v15.94a4.81,4.81,0,0,1-1,1.4Q231.71,754.71,209.46,777a4.81,4.81,0,0,1-1.4,1Z"/><path class="cls-1" d="M191.94,668c-1.46,1.73-3.14,3.24-4.73,4.83q-20.78,20.8-41.58,41.58c-.18.19-.33.44-.62.52V694.22a4.77,4.77,0,0,1,1-1.39L169.83,669a4.77,4.77,0,0,1,1.39-1Z"/><path class="cls-1" d="M208.06,778c1.47-1.72,3.14-3.24,4.73-4.83q20.81-20.83,41.64-41.65c.17-.16.3-.39.56-.45v20.72a4.77,4.77,0,0,1-1,1.39L230.17,777a4.77,4.77,0,0,1-1.39,1Z"/><path class="cls-2" d="M171.22,668q-4.54,4.57-9.09,9.16l-16.57,16.58c-.17.17-.37.31-.55.47V678.28a4.32,4.32,0,0,1,1-1.39Q150,673,153.89,669a4.32,4.32,0,0,1,1.39-1Z"/><path class="cls-2" d="M228.78,778l8.63-8.71,17.1-17.09a4.72,4.72,0,0,1,.48-.41v15.94a4.32,4.32,0,0,1-1,1.39Q250,773,246.11,777a4.32,4.32,0,0,1-1.39,1Z"/><path class="cls-1" d="M155.28,668c-1.91,2.18-4.05,4.14-6.09,6.19a57.48,57.48,0,0,1-4.18,4.08c0-3.24,0-6.48,0-9.72,0-.46.1-.56.56-.56C148.8,668,152,668,155.28,668Z"/><path class="cls-1" d="M244.72,778a37.68,37.68,0,0,1,3-3.15c2.19-2.22,4.4-4.41,6.61-6.61.18-.18.32-.44.62-.51,0,3.24,0,6.48,0,9.72,0,.46-.1.56-.56.56C251.2,778,248,778,244.72,778Z"/><path class="cls-1" d="M354.54,668c3.3,0,6.6,0,9.9,0,.46,0,.56.1.56.56,0,3.3,0,6.6,0,9.9a4.64,4.64,0,0,1-1,1.39L266.85,777a4.64,4.64,0,0,1-1.39,1c-3.3,0-6.6,0-9.9,0-.46,0-.56-.1-.56-.56,0-3.3,0-6.6,0-9.9a4.64,4.64,0,0,1,1-1.39L353.15,669A4.64,4.64,0,0,1,354.54,668Z"/><path class="cls-1" d="M317.88,668h20.71c.17.36-.08.58-.27.81a9.49,9.49,0,0,1-.7.72q-40.55,40.55-81.09,81.07c-.42.42-.72,1.11-1.52,1V730.88a4.64,4.64,0,0,1,1-1.39q30.24-30.22,60.47-60.47A4.64,4.64,0,0,1,317.88,668Z"/><path class="cls-1" d="M302.12,778H281.41c-.17-.36.08-.58.27-.81a9.49,9.49,0,0,1,.7-.72q40.55-40.55,81.09-81.07c.42-.42.72-1.11,1.52-1v20.71a4.64,4.64,0,0,1-1,1.39Q333.74,746.73,303.51,777A4.64,4.64,0,0,1,302.12,778Z"/><path class="cls-2" d="M255,751.59c2-1.79,3.89-3.78,5.8-5.69l68.53-68.52,8.81-8.81c.16-.17.29-.37.44-.56h16c-2.88,2.91-5.75,5.82-8.64,8.71L255.82,766.8c-.26.26-.54.5-.81.74Z"/><path class="cls-2" d="M365,694.41c-2.06,1.81-3.93,3.82-5.87,5.76Q320.54,738.72,282,777.3c-.21.21-.49.37-.58.69h-16c3.53-3.55,7-7.11,10.58-10.65l85.1-85.1c1.27-1.27,2.56-2.52,3.85-3.78Z"/><path class="cls-2" d="M317.88,668c-3.07,3.1-6.13,6.21-9.22,9.29q-26.48,26.49-53,53c-.22.22-.45.41-.68.61V714.94a4.81,4.81,0,0,1,1-1.4Q278.3,691.3,300.54,669a4.81,4.81,0,0,1,1.4-1Z"/><path class="cls-2" d="M302.12,778c3.07-3.1,6.13-6.21,9.22-9.29l52.91-52.91c.23-.23.49-.45.74-.67v15.94a4.81,4.81,0,0,1-1,1.4Q341.71,754.71,319.46,777a4.81,4.81,0,0,1-1.4,1Z"/><path class="cls-1" d="M301.94,668c-1.46,1.73-3.14,3.24-4.73,4.83q-20.77,20.8-41.58,41.58c-.18.19-.33.44-.62.52V694.22a4.77,4.77,0,0,1,1-1.39L279.83,669a4.77,4.77,0,0,1,1.39-1Z"/><path class="cls-1" d="M318.06,778c1.47-1.72,3.14-3.24,4.73-4.83q20.81-20.83,41.64-41.65c.17-.16.3-.39.56-.45v20.72a4.77,4.77,0,0,1-1,1.39L340.17,777a4.77,4.77,0,0,1-1.39,1Z"/><path class="cls-2" d="M281.22,668q-4.55,4.57-9.09,9.16l-16.57,16.58c-.17.17-.37.31-.55.47V678.28a4.32,4.32,0,0,1,1-1.39Q260,673,263.89,669a4.32,4.32,0,0,1,1.39-1Z"/><path class="cls-2" d="M338.78,778l8.63-8.71,17.1-17.09a4.72,4.72,0,0,1,.48-.41v15.94a4.32,4.32,0,0,1-1,1.39Q360,773,356.11,777a4.32,4.32,0,0,1-1.39,1Z"/><path class="cls-1" d="M265.28,668c-1.91,2.18-4,4.14-6.09,6.19a57.48,57.48,0,0,1-4.18,4.08c0-3.24,0-6.48,0-9.72,0-.46.1-.56.56-.56C258.8,668,262,668,265.28,668Z"/><path class="cls-1" d="M354.72,778a37.68,37.68,0,0,1,3-3.15c2.19-2.22,4.4-4.41,6.61-6.61.18-.18.32-.44.62-.51,0,3.24,0,6.48,0,9.72,0,.46-.1.56-.56.56C361.2,778,358,778,354.72,778Z"/><path class="cls-1" d="M464.54,668c3.3,0,6.6,0,9.9,0,.46,0,.56.1.56.56,0,3.3,0,6.6,0,9.9a4.64,4.64,0,0,1-1,1.39L376.85,777a4.64,4.64,0,0,1-1.39,1c-3.3,0-6.6,0-9.9,0-.46,0-.56-.1-.56-.56,0-3.3,0-6.6,0-9.9a4.64,4.64,0,0,1,1-1.39L463.15,669A4.64,4.64,0,0,1,464.54,668Z"/><path class="cls-1" d="M427.88,668h20.71c.17.36-.08.58-.27.81a9.49,9.49,0,0,1-.7.72q-40.55,40.55-81.09,81.07c-.42.42-.72,1.11-1.52,1V730.88a4.64,4.64,0,0,1,1-1.39q30.24-30.22,60.47-60.47A4.64,4.64,0,0,1,427.88,668Z"/><path class="cls-1" d="M412.12,778H391.41c-.17-.36.08-.58.27-.81a9.49,9.49,0,0,1,.7-.72q40.55-40.55,81.09-81.07c.42-.42.72-1.11,1.52-1v20.71a4.64,4.64,0,0,1-1,1.39Q443.74,746.73,413.51,777A4.64,4.64,0,0,1,412.12,778Z"/><path class="cls-2" d="M365,751.59c2-1.79,3.89-3.78,5.8-5.69l68.53-68.52,8.81-8.81c.16-.17.29-.37.44-.56h16c-2.88,2.91-5.75,5.82-8.64,8.71L365.82,766.8c-.26.26-.54.5-.81.74Z"/><path class="cls-2" d="M475,694.41c-2.06,1.81-3.93,3.82-5.87,5.76Q430.54,738.72,392,777.3c-.21.21-.49.37-.58.69h-16c3.53-3.55,7-7.11,10.58-10.65l85.1-85.1c1.27-1.27,2.56-2.52,3.85-3.78Z"/><path class="cls-2" d="M427.88,668c-3.07,3.1-6.13,6.21-9.22,9.29q-26.48,26.49-53,53c-.22.22-.45.41-.68.61V714.94a4.81,4.81,0,0,1,1-1.4Q388.3,691.3,410.54,669a4.81,4.81,0,0,1,1.4-1Z"/><path class="cls-2" d="M412.12,778c3.07-3.1,6.13-6.21,9.22-9.29l52.91-52.91c.23-.23.49-.45.74-.67v15.94a4.81,4.81,0,0,1-1,1.4Q451.71,754.71,429.46,777a4.81,4.81,0,0,1-1.4,1Z"/><path class="cls-1" d="M411.94,668c-1.46,1.73-3.14,3.24-4.73,4.83q-20.77,20.8-41.58,41.58c-.18.19-.33.44-.62.52V694.22a4.77,4.77,0,0,1,1-1.39L389.83,669a4.77,4.77,0,0,1,1.39-1Z"/><path class="cls-1" d="M428.06,778c1.47-1.72,3.14-3.24,4.73-4.83q20.81-20.83,41.64-41.65c.17-.16.3-.39.56-.45v20.72a4.77,4.77,0,0,1-1,1.39L450.17,777a4.77,4.77,0,0,1-1.39,1Z"/><path class="cls-2" d="M391.22,668q-4.55,4.57-9.09,9.16l-16.57,16.58c-.17.17-.37.31-.55.47V678.28a4.32,4.32,0,0,1,1-1.39Q370,673,373.89,669a4.32,4.32,0,0,1,1.39-1Z"/><path class="cls-2" d="M448.78,778l8.63-8.71,17.1-17.09a4.72,4.72,0,0,1,.48-.41v15.94a4.32,4.32,0,0,1-1,1.39Q470,773,466.11,777a4.32,4.32,0,0,1-1.39,1Z"/><path class="cls-1" d="M375.28,668c-1.91,2.18-4,4.14-6.09,6.19a57.48,57.48,0,0,1-4.18,4.08c0-3.24,0-6.48,0-9.72,0-.46.1-.56.56-.56C368.8,668,372,668,375.28,668Z"/><path class="cls-1" d="M464.72,778a37.68,37.68,0,0,1,3-3.15c2.19-2.22,4.4-4.41,6.61-6.61.18-.18.32-.44.62-.51,0,3.24,0,6.48,0,9.72,0,.46-.1.56-.56.56C471.2,778,468,778,464.72,778Z"/><path class="cls-1" d="M574.54,668c3.3,0,6.6,0,9.9,0,.46,0,.56.1.56.56,0,3.3,0,6.6,0,9.9a4.64,4.64,0,0,1-1,1.39L486.85,777a4.64,4.64,0,0,1-1.39,1c-3.3,0-6.6,0-9.9,0-.46,0-.56-.1-.56-.56,0-3.3,0-6.6,0-9.9a4.64,4.64,0,0,1,1-1.39L573.15,669A4.64,4.64,0,0,1,574.54,668Z"/><path class="cls-1" d="M537.88,668h20.71c.17.36-.08.58-.27.81a9.49,9.49,0,0,1-.7.72q-40.54,40.55-81.09,81.07c-.42.42-.72,1.11-1.52,1V730.88a4.64,4.64,0,0,1,1-1.39q30.24-30.22,60.47-60.47A4.64,4.64,0,0,1,537.88,668Z"/><path class="cls-1" d="M522.12,778H501.41c-.17-.36.08-.58.27-.81a9.49,9.49,0,0,1,.7-.72q40.54-40.55,81.09-81.07c.42-.42.72-1.11,1.52-1v20.71a4.64,4.64,0,0,1-1,1.39L523.51,777A4.64,4.64,0,0,1,522.12,778Z"/><path class="cls-2" d="M475,751.59c2-1.79,3.89-3.78,5.8-5.69l68.53-68.52,8.81-8.81c.16-.17.29-.37.44-.56h15.95c-2.88,2.91-5.75,5.82-8.64,8.71L475.82,766.8c-.26.26-.54.5-.81.74Z"/><path class="cls-2" d="M585,694.41c-2.06,1.81-3.93,3.82-5.87,5.76Q540.54,738.72,502,777.3c-.21.21-.49.37-.58.69h-16c3.53-3.55,7-7.11,10.58-10.65l85.1-85.1c1.27-1.27,2.56-2.52,3.85-3.78Z"/><path class="cls-2" d="M537.88,668c-3.07,3.1-6.13,6.21-9.22,9.29q-26.47,26.49-53,53c-.22.22-.45.41-.68.61V714.94a4.81,4.81,0,0,1,1-1.4Q498.3,691.3,520.54,669a4.81,4.81,0,0,1,1.4-1Z"/><path class="cls-2" d="M522.12,778c3.07-3.1,6.13-6.21,9.22-9.29q26.45-26.46,52.91-52.91c.23-.23.49-.45.74-.67v15.94a4.81,4.81,0,0,1-1,1.4Q561.7,754.71,539.46,777a4.81,4.81,0,0,1-1.4,1Z"/><path class="cls-1" d="M521.94,668c-1.46,1.73-3.14,3.24-4.73,4.83q-20.78,20.8-41.58,41.58c-.18.19-.33.44-.62.52V694.22a4.77,4.77,0,0,1,1-1.39L499.83,669a4.77,4.77,0,0,1,1.39-1Z"/><path class="cls-1" d="M538.06,778c1.47-1.72,3.14-3.24,4.73-4.83q20.81-20.83,41.64-41.65c.17-.16.3-.39.56-.45v20.72a4.77,4.77,0,0,1-1,1.39L560.17,777a4.77,4.77,0,0,1-1.39,1Z"/><path class="cls-2" d="M501.22,668q-4.55,4.57-9.09,9.16l-16.57,16.58c-.17.17-.37.31-.55.47V678.28a4.32,4.32,0,0,1,1-1.39Q480,673,483.89,669a4.32,4.32,0,0,1,1.39-1Z"/><path class="cls-2" d="M558.78,778l8.63-8.71,17.1-17.09a4.72,4.72,0,0,1,.48-.41v15.94a4.32,4.32,0,0,1-1,1.39Q580,773,576.11,777a4.32,4.32,0,0,1-1.39,1Z"/><path class="cls-1" d="M485.28,668c-1.91,2.18-4,4.14-6.09,6.19a57.48,57.48,0,0,1-4.18,4.08c0-3.24,0-6.48,0-9.72,0-.46.1-.56.56-.56C478.8,668,482,668,485.28,668Z"/><path class="cls-1" d="M574.72,778a37.68,37.68,0,0,1,3-3.15c2.19-2.22,4.4-4.41,6.61-6.61.18-.18.32-.44.62-.51,0,3.24,0,6.48,0,9.72,0,.46-.1.56-.56.56C581.2,778,578,778,574.72,778Z"/><path class="cls-1" d="M684.54,668c3.3,0,6.6,0,9.9,0,.46,0,.56.1.56.56,0,3.3,0,6.6,0,9.9a4.64,4.64,0,0,1-1,1.39L596.85,777a4.64,4.64,0,0,1-1.39,1c-3.3,0-6.6,0-9.9,0-.46,0-.56-.1-.56-.56,0-3.3,0-6.6,0-9.9a4.64,4.64,0,0,1,1-1.39L683.15,669A4.64,4.64,0,0,1,684.54,668Z"/><path class="cls-1" d="M647.88,668h20.71c.17.36-.08.58-.27.81a9.49,9.49,0,0,1-.7.72q-40.54,40.55-81.09,81.07c-.42.42-.72,1.11-1.52,1V730.88a4.64,4.64,0,0,1,1-1.39L646.49,669A4.64,4.64,0,0,1,647.88,668Z"/><path class="cls-1" d="M632.12,778H611.41c-.17-.36.08-.58.27-.81a9.49,9.49,0,0,1,.7-.72q40.54-40.55,81.09-81.07c.42-.42.72-1.11,1.52-1v20.71a4.64,4.64,0,0,1-1,1.39L633.51,777A4.64,4.64,0,0,1,632.12,778Z"/><path class="cls-2" d="M585,751.59c2-1.79,3.89-3.78,5.8-5.69l68.53-68.52,8.81-8.81c.16-.17.29-.37.44-.56h15.95c-2.88,2.91-5.75,5.82-8.64,8.71L585.82,766.8c-.26.26-.54.5-.81.74Z"/><path class="cls-2" d="M695,694.41c-2.06,1.81-3.93,3.82-5.87,5.76Q650.54,738.72,612,777.3c-.21.21-.49.37-.58.69H595.46c3.53-3.55,7-7.11,10.58-10.65l85.1-85.1c1.27-1.27,2.56-2.52,3.85-3.78Z"/><path class="cls-2" d="M647.88,668c-3.07,3.1-6.13,6.21-9.22,9.29q-26.48,26.49-53,53c-.22.22-.45.41-.68.61V714.94a4.81,4.81,0,0,1,1-1.4Q608.3,691.3,630.54,669a4.81,4.81,0,0,1,1.4-1Z"/><path class="cls-2" d="M632.12,778c3.07-3.1,6.13-6.21,9.22-9.29q26.45-26.46,52.91-52.91c.23-.23.49-.45.74-.67v15.94a4.81,4.81,0,0,1-1,1.4Q671.71,754.71,649.46,777a4.81,4.81,0,0,1-1.4,1Z"/><path class="cls-1" d="M631.94,668c-1.46,1.73-3.14,3.24-4.73,4.83q-20.78,20.8-41.58,41.58c-.18.19-.33.44-.62.52V694.22a4.77,4.77,0,0,1,1-1.39L609.83,669a4.77,4.77,0,0,1,1.39-1Z"/><path class="cls-1" d="M648.06,778c1.47-1.72,3.14-3.24,4.73-4.83q20.81-20.83,41.64-41.65c.17-.16.3-.39.56-.45v20.72a4.77,4.77,0,0,1-1,1.39L670.17,777a4.77,4.77,0,0,1-1.39,1Z"/><path class="cls-2" d="M611.22,668q-4.54,4.57-9.09,9.16l-16.57,16.58c-.17.17-.37.31-.55.47V678.28a4.32,4.32,0,0,1,1-1.39Q590,673,593.89,669a4.32,4.32,0,0,1,1.39-1Z"/><path class="cls-2" d="M668.78,778l8.63-8.71,17.1-17.09a4.72,4.72,0,0,1,.48-.41v15.94a4.32,4.32,0,0,1-1,1.39Q690,773,686.11,777a4.32,4.32,0,0,1-1.39,1Z"/><path class="cls-1" d="M595.28,668c-1.91,2.18-4,4.14-6.09,6.19a57.48,57.48,0,0,1-4.18,4.08c0-3.24,0-6.48,0-9.72,0-.46.1-.56.56-.56C588.8,668,592,668,595.28,668Z"/><path class="cls-1" d="M695,776.68c0-3,0-6,0-9-.3.07-.44.33-.62.51-2.21,2.2-4.42,4.39-6.61,6.61a37.68,37.68,0,0,0-3,3.15c2.89,0,5.79,0,8.68,0Z"/><path class="cls-1" d="M696,766.15a4.64,4.64,0,0,0-1,1.39c0,3.05,0,6.09,0,9.14l1.45-1.18a34,34,0,0,1,3.25-2.22c4.66-7,11.19-11.65,18.34-15.95,2.67-1.62,5.19-3.3,7.63-5-1.17-2.95.31-7.07,4.44-7.07a5.45,5.45,0,0,1,1.73.28,13,13,0,0,1,.77-1.06c3.15-4.89,6.62-9.52,11.23-13.11a71,71,0,0,1,17.06-19.28c7.18-10.69,14.28-21.43,21.39-32.17Z"/><path class="cls-1" d="M757.88,668h20.71c.17.36-.08.58-.27.81a9.49,9.49,0,0,1-.7.72q-40.54,40.55-81.09,81.07c-.42.42-.72,1.11-1.52,1V730.88a4.64,4.64,0,0,1,1-1.39L756.49,669A4.64,4.64,0,0,1,757.88,668Z"/><path class="cls-2" d="M787.13,672.59a4.82,4.82,0,0,1,3.88-2.27c.35-.78.72-1.54,1.09-2.31H778.59c-.15.19-.28.39-.44.56l-8.81,8.81L700.81,745.9c-1.91,1.91-3.76,3.9-5.8,5.69v15.95c.27-.24.55-.48.81-.74l85.58-85.58C783.31,678.34,785.21,675.46,787.13,672.59Z"/><path class="cls-2" d="M757.88,668c-3.07,3.1-6.13,6.21-9.22,9.29q-26.48,26.49-53,53c-.22.22-.45.41-.68.61V714.94a4.81,4.81,0,0,1,1-1.4Q718.3,691.3,740.54,669a4.81,4.81,0,0,1,1.4-1Z"/><path class="cls-1" d="M741.94,668c-1.46,1.73-3.14,3.24-4.73,4.83q-20.78,20.8-41.58,41.58c-.18.19-.33.44-.62.52V694.22a4.77,4.77,0,0,1,1-1.39L719.83,669a4.77,4.77,0,0,1,1.39-1Z"/><path class="cls-2" d="M721.22,668q-4.54,4.57-9.09,9.16l-16.57,16.58c-.17.17-.37.31-.55.47V678.28a4.32,4.32,0,0,1,1-1.39Q700,673,703.89,669a4.32,4.32,0,0,1,1.39-1Z"/><path class="cls-1" d="M705.28,668c-1.91,2.18-4,4.14-6.09,6.19a57.48,57.48,0,0,1-4.18,4.08c0-3.24,0-6.48,0-9.72,0-.46.1-.56.56-.56C698.8,668,702,668,705.28,668Z"/></g><g id="Capa_1-2" data-name="Capa 1"><path class="cls-3" d="M434,20A414.11,414.11,0,0,1,595.14,815.47,414.11,414.11,0,0,1,272.86,52.53,411.26,411.26,0,0,1,434,20m0-20C194.31,0,0,194.31,0,434S194.31,868,434,868,868,673.69,868,434,673.69,0,434,0Z"/></g><g id="letras"><text class="cls-4" transform="translate(63 371.55) scale(0.5 1)"><tspan class="cls-5">F</tspan><tspan x="102.81" y="0">letes y Mudanzas</tspan></text><text class="cls-6" transform="translate(47.02 548.8)">Benjamín</text></g></g></svg>