<svg xmlns="http://www.w3.org/2000/svg" viewBox="0 0 910.22 910.22"><defs><style>.cls-1{fill:none;}.cls-2{fill:#fac70f;}.cls-3{fill:#383a3c;}.cls-4{fill:#fbfdfe;}.cls-5{fill:#fcfdfe;}.cls-6{fill:#fbfdfd;}.cls-7{fill:#393a3c;}.cls-8{fill:#393b3c;}.cls-9{fill:#3a3b3c;}.cls-10{fill:#3b3c3d;}.cls-11{fill:#404042;}.cls-12{fill:#3f4041;}</style></defs><title>Recurso 3</title><g id="Capa_2" data-name="Capa 2"><g id="Capa_1-2" data-name="Capa 1"><path class="cls-1" d="M910.16,455.11q0,225.93.06,451.85c0,2.66-.6,3.26-3.26,3.26q-451.84-.11-903.69,0C.6,910.22,0,909.62,0,907Q.11,455.12,0,3.27C0,.6.6,0,3.27,0Q455.12.11,907,0c2.66,0,3.26.6,3.26,3.27Q910.12,229.18,910.16,455.11Z"/><path class="cls-2" d="M455,908.8C204.77,909.35,1,705.23,1.35,454.67,1.67,205,204.72.61,456.92,1.51c248.38.89,452.59,203,451.83,455.43C908,705.5,705.63,909.3,455,908.8Z"/><path class="cls-3" d="M696.91,664.16h11c23.82,0,47.63,0,71.45,0a11.75,11.75,0,0,0,6.61-1.91c15.81-9.88,31.68-19.66,48.05-29.8-.59,3.82-2.42,6.52-3.82,9.31A419.7,419.7,0,0,1,538,865.9a423.32,423.32,0,0,1-106.64,7.47,407.09,407.09,0,0,1-84.23-13.31,415.7,415.7,0,0,1-149.58-74.52A422.82,422.82,0,0,1,91.33,663.29c-1.85-3.2-1.5-4.47,1.66-6.41Q144.91,625,196.62,592.82c.68-.42,1.29-1,2.51-1.85-1.83-.11-3-.23-4.26-.23q-39.28,0-78.56,0a12.49,12.49,0,0,0-7,2C96.7,600.62,84,608.34,71.38,616.25c-1.92,1.21-2.59,1.18-3.51-1-5.15-12.32-9.6-24.88-13.54-37.63a389.87,389.87,0,0,1-11.4-46.78,430.47,430.47,0,0,1-6.07-98.63,407.08,407.08,0,0,1,13.28-84.6A420.75,420.75,0,0,1,228.27,103a412.38,412.38,0,0,1,89.27-43.44,420.9,420.9,0,0,1,71.36-18A419.46,419.46,0,0,1,838.61,286.76,412,412,0,0,1,865,369.24,419.88,419.88,0,0,1,873.67,468a426.11,426.11,0,0,1-4.55,50.14,452.4,452.4,0,0,1-16,68.19c-1,3.29-2.48,4.64-6.17,4.53-9.82-.31-19.66-.09-29.5-.12a10.21,10.21,0,0,0-5.71,1.46q-56.88,35.33-113.83,70.54l-1.13.73Z"/><path class="cls-4" d="M196.45,453.72c15.06,4.21,19.36,16.93,18.2,26.48-1.85,15.13-12.17,25.91-25.19,26.09-19.43.27-38.86.06-58.28.14-2.08,0-2.54-.67-2.53-2.62q.07-48,0-95.95c0-2.19.58-2.79,2.76-2.77,16.23.1,32.46,0,48.69.12,9.7.1,18.59,2.83,24.79,10.81C214.46,428.36,210.72,445,196.45,453.72Z"/><path class="cls-4" d="M561,432.05v11c16.74-13.83,27.4-13,39.51,3.05.94-1.2,1.81-2.38,2.77-3.5,6.81-8,15.66-10.53,25.58-8.5,8.57,1.76,14.94,9.67,15.25,19.55.55,16.93.26,33.89.37,50.83,0,1.64-.67,2-2.12,2-9.6-.05-19.2-.09-28.79,0-2.23,0-2.1-1.18-2.09-2.68q0-16.89,0-33.78c0-1.54,0-3.08-.08-4.62-.07-2-.58-3.94-3-4.1s-4.55.69-5.29,3.22a18,18,0,0,0-.53,4.92c0,11.26-.12,22.52,0,33.77,0,2.74-.78,3.34-3.38,3.29q-13.32-.24-26.66,0c-2.55.05-3.11-.71-3.09-3.16.13-11.73.06-23.46.06-35.19,0-1,0-1.9,0-2.84-.13-2.68-1.65-4.27-4.21-4.35s-4.05,1.83-4.23,4.33c-.2,2.71-.07,5.45-.07,8.17,0,10.07-.06,20.15.05,30.22,0,2.11-.43,2.85-2.71,2.81-9.24-.13-18.49-.11-27.73,0-2,0-2.57-.65-2.56-2.62q.1-25.24,0-50.48a3.38,3.38,0,0,1,1.78-3.47C540.06,444.1,550.18,438.26,561,432.05Z"/><path class="cls-2" d="M549.24,591.63l-23.11,14.31q-45.9,28.42-91.79,56.86a7.07,7.07,0,0,1-3.9,1.37q-41.4-.06-82.8,0c-.45,0-.91-.09-2.31-.24,5.34-3.36,10-6.35,14.72-9.27q50.16-31,100.31-62a10.34,10.34,0,0,1,5.59-1.9q40.51.06,81,0c.68,0,1.37.09,2,.15Z"/><path class="cls-2" d="M374.83,590.94c-5.09,3.22-9.49,6.06-13.94,8.82q-50.16,31-100.31,62.07a14.72,14.72,0,0,1-8.28,2.38c-24.88-.1-49.76-.05-74.64-.05H171c.16-1.54,1.23-1.74,1.94-2.18Q229,627.17,285.22,592.39a9.76,9.76,0,0,1,5.3-1.68q40.86.07,81.74.06C372.83,590.77,373.39,590.84,374.83,590.94Z"/><path class="cls-4" d="M485.56,441.81c.15-6.14.15-6.15,5.73-6.15,7.94,0,15.88.06,23.82,0,2,0,2.64.46,2.63,2.54q-.11,32.88,0,65.76c0,2.11-.74,2.51-2.65,2.5-8.65-.09-17.3-.2-25.94,0-3.13.09-4-.94-3.54-3.77a24.29,24.29,0,0,0,0-3.25c-2.67,2-4.63,4.2-7.27,5.47-15,7.25-33.11,2.87-40.41-13.05-7.07-15.43-6.5-30.88,2.73-45.32,10.14-15.87,30.45-16.23,42.58-6.55C483.88,440.5,484.51,441,485.56,441.81Z"/><path class="cls-4" d="M332.94,432.55V442c4.24-4,8.39-6.75,13.5-7.75,6.49-1.28,13-1.45,19.2.92,9.41,3.58,13.76,11.12,14,20.68.41,16.1.14,32.22.21,48.32,0,1.62-.37,2.3-2.15,2.28-9.83-.07-19.66-.1-29.49,0-2.29,0-2.4-1.08-2.39-2.82,0-11,0-22,0-33.05,0-1.18,0-2.37-.15-3.55-.28-2.73-1.91-4.45-4.55-4.57a4.84,4.84,0,0,0-5.29,4.26,31.69,31.69,0,0,0-.48,6c0,10.3.1,20.61.3,30.91,0,2.13-.43,2.85-2.7,2.82q-14.38-.19-28.78,0c-2.18,0-2.78-.56-2.77-2.76,0-16.71-.05-33.41-.15-50.11,0-1.66.25-2.88,1.85-3.82,9.64-5.71,19.23-11.51,28.84-17.27C332.11,432.39,332.4,432.51,332.94,432.55Z"/><path class="cls-4" d="M259.36,509.19c-17.21,0-32.58-11.19-36.3-27.32-5.91-25.66,12.23-52.21,42.68-48,14.79,2,24.73,10.92,30,25,.74,2,.34,2.77-1.52,3.7-11.51,5.76-22.94,11.67-34.4,17.55-.8.41-2.18.62-2,1.66.11.7,1.22,1.42,2,1.81,2.51,1.17,5.14,1.4,7.21-.75,1.21-1.25,2.05-1.48,3.54-.55,5.89,3.72,11.82,7.39,17.81,11,1.6.94,1.5,1.53.39,2.81C281,505,271.09,509.11,259.36,509.19Z"/><path class="cls-4" d="M450.31,333.39c.42-3.1.86-6.2,1.25-9.3.75-6.1,1.51-12.2,2.17-18.31.28-2.57,1.1-3.81,4.12-3.63,5.67.32,11.37.18,17.06.05,2.19-.05,3,.38,3,2.85q-.17,32.18,0,64.34c0,2.41-.75,3.07-3,2.95a91.74,91.74,0,0,0-9.95,0c-2.44.14-2.91-.82-2.9-3.05q.14-20.61-.12-41.25c-1.83,6.74-2.18,13.73-3.25,20.6-1.1,7.11-2,14.26-2.85,21.41-.19,1.61-.67,2.33-2.35,2.26-10.8-.47-8.58,2.2-10.17-8.08-1.7-11-3.18-22-4.77-33a8.06,8.06,0,0,0-1.12-3.29c0,13.58-.1,27.16.08,40.74,0,3-.87,3.88-3.77,3.64a93,93,0,0,0-9.59-.08c-1.65,0-2.54-.19-2.53-2.27q.12-32.72,0-65.41c0-1.86.52-2.43,2.4-2.4,6.27.11,12.56.14,18.83,0,2.12-.05,2.64,1,2.87,2.66q2,14.2,3.92,28.42Z"/><path class="cls-4" d="M390.27,549.42V544.9c0-30.06,0-60.13-.08-90.19,0-2.89.93-4.32,3.44-5.67,10.07-5.4,20-11.07,29.93-16.6,1.12.85.67,1.87.67,2.74q0,46.86,0,93.73c0,1.51.24,2.93-1.61,3.87C412,538.15,401.5,543.63,390.27,549.42Z"/><path class="cls-4" d="M553.92,368.37c-2.46,1.43-4,3.05-6.12,3.93-8.49,3.53-16.58-1.26-16.79-10.39-.26-11.72,0-23.46-.13-35.18,0-5,1.18-9.29,6-11.54,5.13-2.42,10.12-1.6,14.74,1.61.56.4,1.07.86,2.22,1.78,0-4.9.14-9.2-.06-13.49-.11-2.4.73-3,3-2.89,4,.16,8.06.11,12.08,0,1.68,0,2.23.44,2.23,2.17q-.09,32.88,0,65.76c0,1.8-.71,2.19-2.29,2.16-3.67-.06-7.35-.11-11,0C555.15,372.44,552.9,372.46,553.92,368.37Z"/><path class="cls-4" d="M507.18,368.35c-3.06,3.41-6.36,5.07-10.58,5-7.41-.09-11.53-3.82-11.63-11.27-.2-14.79-.13-29.59-.29-44.38,0-2.23.65-2.84,2.8-2.75,3.9.17,7.82.2,11.72,0,2.41-.13,2.9.74,2.88,3q-.13,19.89,0,39.77c0,2.08-1.17,5.47,2.52,5.54,4,.08,2.79-3.47,2.81-5.65q.19-19.53,0-39.06c0-2.59.43-3.81,3.41-3.59a111.73,111.73,0,0,0,11.72,0c1.71,0,2.21.56,2.2,2.24q-.06,26.46,0,52.91c0,1.76-.68,2.23-2.3,2.2-3.79-.06-7.59-.21-11.36.05C508.21,372.57,506.55,372,507.18,368.35Z"/><path class="cls-4" d="M189.91,342.72c.28-4-.36-9,.49-13.94,1.4-8.21,5.32-12.68,13.4-14.38a26.42,26.42,0,0,1,15.33,1.22c7,2.73,9.94,8.38,10.56,15.45.32,3.53.15,7.1.37,10.64.15,2.29-.57,3.12-3,3.06-5.68-.17-11.37.07-17.05-.11-2.39-.07-3.12.68-3,3,.31,4.24-.29,8.5.44,12.75.29,1.73.69,3,2.71,2.95a2.84,2.84,0,0,0,3-2.91c.25-3.18.32-6.38.26-9.57,0-1.83.52-2.51,2.41-2.45q5.85.18,11.72,0c1.82-.05,2.58.5,2.44,2.39-.21,2.95.15,6-.49,8.84-1.49,6.57-5.45,11.21-12.18,12.93a28.21,28.21,0,0,1-14.05,0c-9-2.27-13.06-7.81-13.39-17.93C189.81,351,189.91,347.32,189.91,342.72Z"/><path class="cls-5" d="M262.43,342.24c.32-3.82-.54-9.13.58-14.43,1.6-7.62,5.72-11.93,13.54-13.47a27.73,27.73,0,0,1,14.34,1c6.91,2.32,10.88,8.24,11.33,16.79.18,3.31,0,6.64.2,9.94.15,2.31-.83,2.76-2.89,2.72-5.8-.11-11.6,0-17.4-.09-2,0-2.67.61-2.59,2.62.14,3.66-.06,7.34.1,11,.09,2.13-.23,5,3,5,3.11,0,3.15-2.65,3.2-4.95.05-2.49.11-5,0-7.46-.08-1.76.36-2.55,2.33-2.47,3.9.14,7.81.11,11.72,0,1.74-.05,2.61.31,2.5,2.3-.21,3.65.34,7.39-.92,10.91-2,5.56-5.73,9.52-11.59,10.94a28.39,28.39,0,0,1-17.1-.92c-7.2-2.75-10-8.63-10.34-15.88C262.26,351.77,262.43,347.74,262.43,342.24Z"/><path class="cls-4" d="M362.19,315c4.79,0,9.28.09,13.77,0,2.17-.07,2.08,1.29,2.29,2.73q2.52,17.18,5.1,34.33c0,.21.21.39.5.88.57-8.23,1.1-16.17,1.67-24.11.28-3.89.7-7.77,1-11.66.09-1.36.34-2.2,2-2.16,4,.09,8.06.08,12.08,0,1.56,0,1.53.53,1.37,1.85-2,17.25-3.72,34.53-6.5,51.67-1.29,8-5.16,11.39-13.42,11.83-4.49.24-9,0-13.5.12-1.72,0-2.37-.56-2.21-2.25a14.18,14.18,0,0,0,0-3.19c-.39-2.76.32-4.21,3.51-3.86,2.95.32,3.24-1.68,2.78-4q-4.39-22-8.81-44.07C363.29,320.58,362.79,318,362.19,315Z"/><path class="cls-6" d="M315.33,352.18c2.35.08,5.22-.64,6.9.46s.3,4.18.65,6.35c.32,1.92.2,4.27,3.09,4.33,3.06.06,3.07-2.17,3.31-4.39.43-3.91-1.09-6.43-4.61-8.25a124.6,124.6,0,0,1-11.51-6.94c-7.2-4.78-6.41-12-5.48-19.15.82-6.33,5.51-8.81,10.93-10,6.23-1.4,12.46-1.12,18.32,1.77a13.35,13.35,0,0,1,7,15.6c-.35,1.3-1.17,1.29-2.12,1.29-3.67,0-7.34-.07-11,0-1.79.05-2.22-.77-2.13-2.36.07-1.41-.06-2.84-.1-4.26a2.45,2.45,0,0,0-2.62-2.7,2.77,2.77,0,0,0-3,2.48c-.5,3.41-.33,6.7,3.15,8.68q4.31,2.44,8.69,4.76c9.84,5.19,13.17,13.88,9.4,24.41-1.74,4.85-5.48,7.31-10.18,8.36a30,30,0,0,1-16.09-.57,15.22,15.22,0,0,1-10.31-18.48c.32-1.26,1-1.39,2-1.38C311.55,352.2,313.44,352.19,315.33,352.18Z"/><path class="cls-4" d="M131.38,337.16c0-10.53.07-21.06-.06-31.59,0-2.51.41-3.48,3.23-3.4,8.27.21,16.56.15,24.84,0,2.18,0,2.92.57,2.78,2.78a84.66,84.66,0,0,0,0,8.87c.06,1.78-.42,2.74-2.36,2.47a3.37,3.37,0,0,0-.71,0c-3.14.25-7.94-1.39-9,.66-1.59,3-.52,7.33-.63,11.09,0,1.46.68,1.8,2,1.78,2.25-.06,4.51.14,6.74-.06s3,.73,2.65,2.81c0,.23,0,.48,0,.71-.16,3.05,1.24,6.91-.53,8.91s-5.59.59-8.5.52c-2.36-.05-2.34,1.16-2.33,2.85.05,7.93-.07,15.85.08,23.78.05,2.36-.68,3.06-3,3-4.14-.15-8.29-.16-12.42,0-2.22.08-2.78-.7-2.76-2.85C131.43,358.7,131.38,347.93,131.38,337.16Z"/><path class="cls-4" d="M184.21,337.45c0,10.54-.1,21.07.08,31.6.05,2.75-.79,3.43-3.37,3.3-4-.19-8-.13-12.07,0-2,.06-2.95-.35-2.94-2.69q.12-32.47,0-65c0-2.18.83-2.53,2.71-2.48,4.37.11,8.76.14,13.13,0,2.08-.07,2.53.67,2.51,2.61C184.17,315.68,184.21,326.57,184.21,337.45Z"/><path class="cls-4" d="M236.79,344.92c0-5.69,0-11.37,0-17.05,0-1.59-.05-2.89-2.17-2.67-1.31.13-1.57-.67-1.54-1.78,0-1.77,0-3.55,0-5.32,0-.6,0-1.57.54-1.54,5,.24,3.06-3.55,3-5.67-.07-3,.79-3.88,3.75-3.66a94,94,0,0,0,11,0c2-.08,2.77.61,2.55,2.61-.13,1.16.09,2.37,0,3.54-.26,2.22.41,3.44,2.85,3,1.83-.31,2.24.63,2.12,2.22a21,21,0,0,0,0,3.55c.17,2.05-.13,3.49-2.75,3.05-1.67-.27-2.25.55-2.24,2.24.07,10.42,0,20.84.09,31.26,0,2.48.35,4.88,3.82,4.53,1.42-.14,1.7.61,1.82,1.9.65,7.12.69,7.14-6.27,7.08-2.37,0-4.73-.11-7.1-.24-6.09-.35-9.22-3.44-9.41-9.69-.17-5.8,0-11.6,0-17.4Z"/><path class="cls-4" d="M390.27,439.55c0-7.15,0-13.73,0-20.32A2.27,2.27,0,0,1,391.6,417c10.7-5.92,21.39-11.87,32.64-18.13,0,6.87,0,13.19,0,19.52a2.11,2.11,0,0,1-1.31,1.91C412.2,426.61,401.47,433,390.27,439.55Z"/><path class="cls-7" d="M172.07,482.18c-6.36.26-6.36.26-6.37-4.69,0-3.53.06-7.07,0-10.61,0-1.51.44-2.15,2-2,1.29.1,2.59,0,3.89,0,3.17,0,6.27.24,7.89,3.51a11,11,0,0,1-.43,10.82C177.1,482.52,173.69,482.17,172.07,482.18Z"/><path class="cls-8" d="M165.7,436.19a14.06,14.06,0,0,1,0-2.83c.4-1.94-1.29-4.52,1-5.75,2.6-1.42,9.5.85,11,3.16,1.73,2.62,1.58,8.94-.29,11.5-1.73,2.39-7.6,3.89-10.81,2.94-1.26-.37-.88-1.21-.9-1.93C165.68,440.92,165.71,438.55,165.7,436.19Z"/><path class="cls-7" d="M483.55,469.59c0,5.51-2.13,8.64-6.59,10.06a5.58,5.58,0,0,1-5.35-.86c-3.8-2.9-4-7.07-3.43-11.28.56-3.94,3.07-6.28,6.94-7.05C480,459.48,483.53,463.34,483.55,469.59Z"/><path class="cls-9" d="M270.66,460.7c-6,3.07-11.7,5.93-17.34,8.88-1.7.89-2.23.5-2.39-1.36a11,11,0,0,1,7-11.22C262.66,455.14,267.38,456.44,270.66,460.7Z"/><path class="cls-10" d="M548.18,343.49q0-8,0-15.94c0-1.76.27-3.4,2.46-3.62s2.73,1.48,2.88,3.17a51.86,51.86,0,0,1,.25,6.35c-.22,9,.55,17.94-.41,26.89-.19,1.75-.62,3.05-2.63,3s-2.51-1.51-2.52-3.17c0-5.55,0-11.11,0-16.66Z"/><path class="cls-11" d="M212.73,330.34c-.09,3,.85,5.87-3.43,5.23-1.64-.25-2.27-.73-2.22-2.36a51.67,51.67,0,0,1,.5-7c.23-1.41.77-2.14,2.14-2.27a2.35,2.35,0,0,1,2.71,2.16A34.17,34.17,0,0,1,212.73,330.34Z"/><path class="cls-12" d="M279.42,330.43c.2-1.51.38-3,.59-4.53a2.17,2.17,0,0,1,2.46-2,2.24,2.24,0,0,1,2.23,1.86c.85,2.79.48,5.62.42,8.43,0,2.13-1.92,1.17-3,1.27s-2.53.44-2.53-1.48v-3.53Z"/></g></g></svg>